<svg width="34" height="24" viewBox="0 0 34 24" fill="none" xmlns="http://www.w3.org/2000/svg">
<path d="M17.1062 0.333984H17.2898C18.9853 0.340124 27.5761 0.401517 29.8925 1.01954C30.5927 1.20816 31.2308 1.57581 31.743 2.08576C32.2551 2.5957 32.6234 3.23008 32.8111 3.9255C33.0194 4.70315 33.1659 5.73251 33.2649 6.79461L33.2855 7.00744L33.3309 7.53952L33.3474 7.75235C33.4814 9.6228 33.4979 11.3746 33.5 11.7572V11.9107C33.4979 12.3077 33.4794 14.1782 33.3309 16.1264L33.3144 16.3413L33.2958 16.5541C33.1927 17.7247 33.04 18.8871 32.8111 19.7425C32.624 20.4382 32.2559 21.0728 31.7436 21.5829C31.2314 22.0929 30.593 22.4604 29.8925 22.6484C27.4998 23.2869 18.4057 23.3319 17.1454 23.334H16.8525C16.2152 23.334 13.5791 23.3217 10.8152 23.2276L10.4646 23.2153L10.2851 23.2071L9.9324 23.1928L9.57969 23.1785C7.29017 23.0782 5.10998 22.9165 4.10548 22.6464C3.40519 22.4585 2.76696 22.0913 2.25473 21.5817C1.74249 21.072 1.37424 20.4378 1.18686 19.7425C0.957904 18.8891 0.805269 17.7247 0.702138 16.5541L0.685637 16.3392L0.669136 16.1264C0.56734 14.7397 0.510932 13.3501 0.5 11.9598L0.5 11.7081C0.504125 11.2681 0.520626 9.74763 0.632008 8.06955L0.646447 7.85876L0.652635 7.75235L0.669136 7.53952L0.714513 7.00744L0.73514 6.79461C0.834146 5.73251 0.980593 4.7011 1.18892 3.9255C1.37599 3.2298 1.7441 2.59512 2.25636 2.08509C2.76861 1.57506 3.40701 1.2076 4.10754 1.01954C5.11204 0.753506 7.29224 0.58979 9.58176 0.487468L9.9324 0.473143L10.2872 0.460864L10.4646 0.454725L10.8173 0.4404C12.7803 0.377727 14.7441 0.342933 16.7081 0.336031L17.1062 0.333984ZM13.7008 6.90307V16.7628L22.2752 11.835L13.7008 6.90307Z" fill="#141414"/>
</svg>
