<svg width="35" height="42" viewBox="0 0 35 42" fill="none" xmlns="http://www.w3.org/2000/svg">
<path d="M17.5 0C22.1413 0 26.5925 1.89642 29.8744 5.27208C33.1563 8.64773 35 13.2261 35 18C35 25.452 29.4778 33.26 18.6667 41.6C18.3301 41.8596 17.9207 42 17.5 42C17.0793 42 16.6699 41.8596 16.3333 41.6C5.52222 33.26 0 25.452 0 18C0 13.2261 1.84374 8.64773 5.12563 5.27208C8.40752 1.89642 12.8587 0 17.5 0ZM17.5 12C15.9529 12 14.4692 12.6321 13.3752 13.7574C12.2812 14.8826 11.6667 16.4087 11.6667 18C11.6667 19.5913 12.2812 21.1174 13.3752 22.2426C14.4692 23.3679 15.9529 24 17.5 24C19.0471 24 20.5308 23.3679 21.6248 22.2426C22.7188 21.1174 23.3333 19.5913 23.3333 18C23.3333 16.4087 22.7188 14.8826 21.6248 13.7574C20.5308 12.6321 19.0471 12 17.5 12Z" fill="#FBF3E8"/>
</svg>
