<svg width="15" height="18" viewBox="0 0 15 18" fill="none" xmlns="http://www.w3.org/2000/svg">
<path d="M3.10829 1.12113L3.67578 2.23489L3.10829 1.12113ZM1.28739 2.94203L2.40115 3.50952L1.28739 2.94203ZM1.28739 15.0587L0.173636 15.6261L1.28739 15.0587ZM3.10829 16.8795L3.67578 15.7657L3.10829 16.8795ZM11.8915 16.8795L11.3241 15.7657L11.8915 16.8795ZM13.7124 15.0587L12.5987 14.4912L13.7124 15.0587ZM13.4453 4.92472L12.5614 5.8086L13.4453 4.92472ZM7.49992 1.91699C7.74292 1.91699 7.9715 1.91699 8.18825 1.9175L8.19409 -0.582493C7.97392 -0.583008 7.74234 -0.583007 7.49992 -0.583007V1.91699ZM3.67578 2.23489C3.91584 2.11257 4.24755 2.02006 4.86505 1.96961C5.49714 1.91797 6.3125 1.91699 7.49992 1.91699V-0.583007C6.35375 -0.583007 5.41898 -0.583979 4.66147 -0.522088C3.88937 -0.459005 3.19204 -0.324446 2.5408 0.00737637L3.67578 2.23489ZM2.40115 3.50952C2.68078 2.96072 3.12698 2.51452 3.67578 2.23489L2.5408 0.00737637C1.52159 0.526685 0.692945 1.35533 0.173636 2.37454L2.40115 3.50952ZM2.08325 7.33366C2.08325 6.14626 2.08423 5.33088 2.13587 4.69879C2.18632 4.08129 2.27883 3.74958 2.40115 3.50952L0.173636 2.37454C-0.158189 3.02578 -0.292747 3.72311 -0.35583 4.49521C-0.417722 5.25272 -0.416747 6.18751 -0.416747 7.33366H2.08325ZM2.08325 10.667V7.33366H-0.416747V10.667H2.08325ZM2.40115 14.4912C2.27883 14.2511 2.18632 13.9193 2.13587 13.3018C2.08423 12.6697 2.08325 11.8544 2.08325 10.667H-0.416747C-0.416747 11.8132 -0.417722 12.7479 -0.35583 13.5054C-0.292747 14.2776 -0.158189 14.9749 0.173636 15.6261L2.40115 14.4912ZM3.67578 15.7657C3.12698 15.4862 2.68078 15.0399 2.40115 14.4912L0.173636 15.6261C0.692945 16.6453 1.52159 17.474 2.5408 17.9932L3.67578 15.7657ZM7.49992 16.0837C6.3125 16.0837 5.49714 16.0827 4.86505 16.0311C4.24755 15.9806 3.91584 15.8881 3.67578 15.7657L2.5408 17.9932C3.19204 18.3251 3.88937 18.4597 4.66147 18.5227C5.41898 18.5847 6.35375 18.5837 7.49992 18.5837V16.0837ZM11.3241 15.7657C11.084 15.8881 10.7523 15.9806 10.1348 16.0311C9.50267 16.0827 8.68734 16.0837 7.49992 16.0837V18.5837C8.64609 18.5837 9.58084 18.5847 10.3383 18.5227C11.1105 18.4597 11.8078 18.3251 12.459 17.9932L11.3241 15.7657ZM12.5987 14.4912C12.3191 15.0399 11.8728 15.4862 11.3241 15.7657L12.459 17.9932C13.4783 17.474 14.3069 16.6453 14.8262 15.6261L12.5987 14.4912ZM12.9166 10.667C12.9166 11.8544 12.9156 12.6697 12.864 13.3018C12.8135 13.9193 12.721 14.2511 12.5987 14.4912L14.8262 15.6261C15.158 14.9749 15.2926 14.2776 15.3557 13.5054C15.4176 12.7479 15.4166 11.8132 15.4166 10.667H12.9166ZM12.9166 7.33366V10.667H15.4166V7.33366H12.9166ZM12.9161 6.64531C12.9166 6.86205 12.9166 7.09063 12.9166 7.33366H15.4166C15.4166 7.09127 15.4166 6.85967 15.4161 6.63947L12.9161 6.64531ZM14.3292 4.04083L10.7928 0.504426L9.025 2.2722L12.5614 5.8086L14.3292 4.04083ZM15.4161 6.63947C15.4138 5.65419 15.0128 4.72456 14.3292 4.04083L12.5614 5.8086C12.7908 6.03796 12.9153 6.33928 12.9161 6.64531L15.4161 6.63947ZM8.18825 1.9175C8.49434 1.91822 8.79559 2.04283 9.025 2.2722L10.7928 0.504426C10.109 -0.179294 9.17942 -0.580188 8.19409 -0.582493L8.18825 1.9175Z" fill="white"/>
</svg>
