<svg width="20" height="20" viewBox="0 0 20 20" fill="none" xmlns="http://www.w3.org/2000/svg">
<path d="M18.3299 4.77286V1.6701C18.3299 1.21019 17.9575 0.836926 17.4967 0.836926C17.036 0.836926 16.6635 1.21019 16.6635 1.6701V3.6414L12.3285 0.716116C10.913 -0.238705 9.0833 -0.238705 7.66773 0.716116L1.83549 4.65204C0.686538 5.42773 0 6.71832 0 8.10556V15.8341C0 18.1312 1.86882 20 4.16589 20H5.83224C6.29299 20 6.66542 19.6267 6.66542 19.1668V11.6682C6.66542 11.2091 7.03868 10.8351 7.49859 10.8351H12.4977C12.9576 10.8351 13.3308 11.2091 13.3308 11.6682V19.1668C13.3308 19.6267 13.7033 20 14.164 20H15.8304C18.1274 20 19.9963 18.1312 19.9963 15.8341V8.10556C19.9963 6.78831 19.3764 5.55771 18.3299 4.77286Z" fill="black"/>
</svg>
