<svg width="36" height="45" viewBox="0 0 36 45" fill="none" xmlns="http://www.w3.org/2000/svg">
<path fill-rule="evenodd" clip-rule="evenodd" d="M2.637 2.637C-2.68221e-07 5.27175 0 9.51525 0 18V27C0 35.4847 -2.68221e-07 39.7282 2.637 42.363C5.27175 45 9.51525 45 18 45C26.4847 45 30.7282 45 33.363 42.363C36 39.7282 36 35.4847 36 27V18C36 9.51525 36 5.27175 33.363 2.637C30.7282 -2.68221e-07 26.4847 0 18 0C9.51525 0 5.27175 -2.68221e-07 2.637 2.637ZM11.25 5.0625C10.8024 5.0625 10.3732 5.24029 10.0568 5.55676C9.74029 5.87322 9.5625 6.30245 9.5625 6.75C9.5625 7.19755 9.74029 7.62678 10.0568 7.94324C10.3732 8.25971 10.8024 8.4375 11.25 8.4375H24.75C25.1976 8.4375 25.6268 8.25971 25.9432 7.94324C26.2597 7.62678 26.4375 7.19755 26.4375 6.75C26.4375 6.30245 26.2597 5.87322 25.9432 5.55676C25.6268 5.24029 25.1976 5.0625 24.75 5.0625H11.25ZM18 38.25C19.1935 38.25 20.3381 37.7759 21.182 36.932C22.0259 36.0881 22.5 34.9435 22.5 33.75C22.5 32.5565 22.0259 31.4119 21.182 30.568C20.3381 29.7241 19.1935 29.25 18 29.25C16.8065 29.25 15.6619 29.7241 14.818 30.568C13.9741 31.4119 13.5 32.5565 13.5 33.75C13.5 34.9435 13.9741 36.0881 14.818 36.932C15.6619 37.7759 16.8065 38.25 18 38.25Z" fill="#FBF3E8"/>
</svg>
