<svg width="80" height="50" viewBox="0 0 80 50" fill="none" xmlns="http://www.w3.org/2000/svg">
<path d="M13.3883 5.85091L13.1406 0.965715H27.0533L26.7773 5.85091H22.9539V21.381H17.2259V5.85091H13.3883ZM34.3169 17.3095C34.966 17.3095 35.6544 17.2591 36.3762 17.1585C37.0991 17.0578 37.8158 16.9225 38.5326 16.7516L39.1291 20.4761C38.3152 20.8882 37.37 21.2101 36.2944 21.446C35.2187 21.6819 34.0268 21.8025 32.7186 21.8025C27.9025 21.8025 25.4944 19.1287 25.4944 13.7863C25.4944 12.3792 25.6491 11.1681 25.9594 10.1426C26.2698 9.12239 26.7298 8.27725 27.3353 7.61457C27.9409 6.95189 28.687 6.46326 29.5786 6.14765C30.4703 5.83099 31.4974 5.67056 32.661 5.67056C33.8236 5.67056 34.8164 5.84567 35.6413 6.19798C36.4642 6.55449 37.1436 7.03787 37.6763 7.66071C38.2091 8.27935 38.6024 9.01229 38.849 9.85217C39.0957 10.6963 39.217 11.6106 39.217 12.5962C39.217 12.8972 39.1978 13.2096 39.1584 13.5263C39.12 13.843 39.0765 14.1449 39.0229 14.426C38.9693 14.707 38.9107 14.9691 38.8531 15.1998C38.7944 15.4305 38.7409 15.6119 38.6933 15.7429H31.2204C31.2598 16.0093 31.3468 16.2452 31.4772 16.436C31.6086 16.6331 31.7926 16.7925 32.0302 16.9236C32.2667 17.0494 32.5731 17.149 32.9451 17.2151C33.3181 17.2812 33.7741 17.3105 34.3169 17.3105V17.3095ZM34.0116 11.9713C34.0015 11.3726 33.8863 10.9416 33.6629 10.6795C33.4405 10.4131 33.0917 10.2821 32.6165 10.2821C32.1515 10.2821 31.7936 10.4184 31.5358 10.6942C31.2791 10.9657 31.1385 11.3925 31.1193 11.9702H34.0116V11.9713ZM46.7991 21.6515C46.0045 21.8224 45.2433 21.8423 44.5124 21.7123C43.7804 21.5813 43.1314 21.3149 42.5683 20.9133C42.0062 20.5107 41.5563 19.9885 41.2167 19.3457C40.877 18.7019 40.7082 17.9533 40.7082 17.0987V0.618644L46.2037 0V16.0428C46.2037 16.4046 46.2623 16.7317 46.3735 17.0232C46.4847 17.3147 46.6252 17.5706 46.7951 17.7918C46.9649 18.013 47.1489 18.1997 47.3521 18.3507C47.5553 18.5006 47.7545 18.6118 47.9486 18.682L46.8001 21.6526L46.7991 21.6515ZM57.4495 17.3095C58.0985 17.3095 58.7869 17.2591 59.5088 17.1585C60.2316 17.0578 60.9483 16.9225 61.6651 16.7516L62.2616 20.4761C61.4477 20.8882 60.5025 21.2101 59.4269 21.446C58.3512 21.6819 57.1593 21.8025 55.8501 21.8025C51.034 21.8025 48.6259 19.1287 48.6259 13.7863C48.6259 12.3792 48.7806 11.1681 49.0909 10.1426C49.4013 9.12239 49.8613 8.27725 50.4678 7.61457C51.0734 6.95189 51.8195 6.46326 52.7111 6.14765C53.6038 5.83099 54.6299 5.67056 55.7935 5.67056C56.9561 5.67056 57.9489 5.84567 58.7738 6.19798C59.5967 6.55449 60.2761 7.03787 60.8088 7.66071C61.3416 8.27935 61.7349 9.01229 61.9815 9.85217C62.2282 10.6963 62.3495 11.6106 62.3495 12.5962C62.3495 12.8972 62.3303 13.2096 62.2909 13.5263C62.2525 13.843 62.209 14.1449 62.1554 14.426C62.1018 14.707 62.0432 14.9691 61.9856 15.1998C61.9269 15.4305 61.8734 15.6119 61.8258 15.7429H54.3539C54.3934 16.0093 54.4803 16.2452 54.6107 16.436C54.7421 16.6331 54.9261 16.7925 55.1637 16.9236C55.4003 17.0494 55.7066 17.149 56.0796 17.2151C56.4527 17.2812 56.9086 17.3105 57.4515 17.3105L57.4495 17.3095ZM57.1441 11.9713C57.135 11.3726 57.0188 10.9416 56.7954 10.6795C56.573 10.4131 56.2242 10.2821 55.749 10.2821C55.284 10.2821 54.9251 10.4184 54.6683 10.6942C54.4116 10.9657 54.271 11.3925 54.2518 11.9702H57.1441V11.9713Z" fill="white"/>
<path d="M61.1445 33.4635C61.1445 30.3462 61.83 28.0226 63.1998 26.4875C64.5696 24.9587 66.5602 24.1943 69.1704 24.1943C71.8019 24.1943 73.7925 24.9703 75.1411 26.5179C76.4887 28.0645 77.163 30.3934 77.163 33.4992C77.163 36.6805 76.4836 39.0449 75.1189 40.6041C73.7541 42.156 71.7585 42.933 69.1381 42.933C66.5167 42.933 64.5322 42.156 63.1786 40.6041C61.8249 39.0449 61.1455 36.6689 61.1455 33.4646L61.1445 33.4635ZM70.8992 33.5327C70.8992 32.7033 70.8668 32.0155 70.8011 31.4671C70.7364 30.9176 70.6333 30.4804 70.4907 30.1585C70.3553 29.8376 70.1753 29.6101 69.958 29.4759C69.7396 29.3406 69.4849 29.2714 69.1967 29.2714C68.9036 29.2714 68.6417 29.3354 68.4244 29.4643C68.202 29.5923 68.017 29.8198 67.8694 30.147C67.7228 30.4741 67.6146 30.9113 67.5438 31.4555C67.4731 31.9987 67.4407 32.6928 67.4407 33.5327C67.4407 34.3674 67.4731 35.0626 67.5438 35.6172C67.6146 36.1719 67.7238 36.6155 67.8643 36.9478C68.0058 37.2802 68.1797 37.5141 68.3981 37.6483C68.6154 37.7835 68.8763 37.8527 69.1806 37.8527C69.4687 37.8527 69.7234 37.7835 69.9418 37.6483C70.1602 37.5141 70.3391 37.2813 70.4746 36.9478C70.6161 36.6155 70.7243 36.1709 70.795 35.6172C70.8658 35.0626 70.8982 34.3684 70.8982 33.5327H70.8992Z" fill="white"/>
<path fill-rule="evenodd" clip-rule="evenodd" d="M70.8176 1.80784C71.8437 2.94971 73.2196 5.04576 74.2457 6.18868C75.7187 5.90767 77.1916 5.6277 78.6625 5.34984C79.4379 5.20409 79.812 5.9538 79.4339 6.71715C78.7899 8.0205 78.1449 9.32489 77.5 10.6282C78.2248 12.1035 79.1579 13.7173 79.8797 15.1884C80.2002 15.8427 79.8555 16.1751 79.2034 16.1614C77.6203 16.1289 76.0533 15.9968 74.4782 15.9297C72.3694 21.962 70.2616 26.3701 68.0779 29.8744C64.7378 35.2335 60.8982 39.3281 56.8958 43.0568C49.2318 50.1963 33.5248 52.5723 29.8217 43.5695C29.488 42.7579 30.1826 41.9033 30.6941 42.9896C31.2249 44.1158 31.974 44.9651 32.8919 45.5418C39.0031 49.39 49.2268 42.2745 53.6446 38.1579C56.822 35.1979 59.8812 31.6401 62.5693 27.3002C64.948 23.4604 67.0356 19.0062 68.6582 13.8127L64.1362 11.4734C63.4215 11.1032 63.5843 10.1228 64.2191 9.79045C65.5233 9.10889 67.6463 8.44726 68.9524 7.76255C69.1768 6.25369 69.5559 3.66587 69.7753 2.16015C69.8653 1.54465 70.3819 1.32131 70.8196 1.80784H70.8176Z" fill="#FDCB14"/>
<path d="M-0.00390625 18.7771H9.53843C10.4513 18.7771 11.3268 18.8882 12.1598 19.1147C12.9918 19.3423 13.7207 19.6977 14.3505 20.1759C14.9814 20.654 15.4818 21.2716 15.8508 22.0308C16.2208 22.7889 16.4058 23.6917 16.4058 24.7413C16.4058 25.9544 16.1834 26.9925 15.7315 27.8554C15.2806 28.7184 14.4981 29.3591 13.3881 29.7795V30.0249C13.9108 30.2346 14.395 30.4852 14.8348 30.783C15.2756 31.0808 15.6506 31.4478 15.966 31.8787C16.2815 32.3097 16.5251 32.8172 16.7 33.4065C16.8739 33.9947 16.9608 34.6888 16.9608 35.4826C16.9608 36.5322 16.8193 37.4822 16.5362 38.3399C16.2542 39.1966 15.776 39.9316 15.1017 40.544C14.4274 41.1563 13.5357 41.6282 12.4206 41.9605C11.3066 42.2929 9.9145 42.4617 8.25048 42.4617H-0.00390625V18.7781L-0.00390625 18.7771ZM6.16186 32.4198V37.457H8.05436C8.83784 37.457 9.44643 37.2714 9.88215 36.8971C10.3169 36.5249 10.5342 35.8884 10.5342 34.9908C10.5342 34.1855 10.3381 33.5564 9.94685 33.1013C9.55562 32.6473 8.9359 32.4187 8.08671 32.4187H6.16186V32.4198ZM6.16186 23.3949V27.802H8.05436C9.4899 27.802 10.2077 27.0386 10.2077 25.5109C10.2077 24.7517 10.0065 24.2096 9.60414 23.8835C9.20178 23.5574 8.64172 23.3939 7.92395 23.3939H6.16186V23.3949Z" fill="white"/>
<path d="M19.4189 42.44V36.0585L18.0491 35.7954V30.9731H25.5857V42.44H19.4199H19.4189ZM18.3746 26.4549C18.3746 25.8478 18.4565 25.335 18.6132 24.9198C18.7709 24.5056 18.9994 24.1722 19.3037 23.9153C19.609 23.6584 19.9891 23.4717 20.446 23.3606C20.903 23.2494 21.4246 23.197 22.012 23.197C22.5993 23.197 23.126 23.2505 23.5941 23.3606C24.0622 23.4717 24.4534 23.6573 24.7688 23.9153C25.0843 24.1722 25.3299 24.5056 25.4977 24.9198C25.6656 25.334 25.7474 25.8478 25.7474 26.4549C25.7474 27.0389 25.6656 27.5286 25.5028 27.926C25.339 28.3234 25.1004 28.6369 24.784 28.877C24.4686 29.1161 24.0774 29.286 23.6093 29.3856C23.1422 29.4852 22.6095 29.5376 22.011 29.5376C21.4236 29.5376 20.902 29.4841 20.445 29.3856C19.9881 29.286 19.608 29.1171 19.3026 28.877C18.9984 28.6379 18.7699 28.3223 18.6122 27.926C18.4545 27.5286 18.3736 27.0389 18.3736 26.4549H18.3746Z" fill="white"/>
<path d="M33.866 42.4418H27.6992V24.6835H32.5932L32.9026 26.5111C33.1644 26.1955 33.4626 25.8977 33.7942 25.6178C34.1268 25.3368 34.4898 25.0862 34.8921 24.8765C35.2955 24.6667 35.7302 24.5021 36.1922 24.3805C36.6542 24.2578 37.1435 24.1938 37.6661 24.1938C38.7317 24.1938 39.6122 24.3564 40.3088 24.6835C41.0043 25.0107 41.5593 25.5066 41.9677 26.1714C42.3751 26.8372 42.6582 27.6719 42.821 28.6816C42.9847 29.6914 43.0656 30.8878 43.0656 32.2656V42.4407H36.8999V31.6123C36.8999 30.8249 36.818 30.2408 36.6491 29.8665C36.4813 29.4932 36.1487 29.3066 35.6594 29.3066C35.2783 29.3066 34.9578 29.3716 34.6919 29.4995C34.4261 29.6274 34.1491 29.8036 33.866 30.0248V42.4407V42.4418Z" fill="white"/>
<path d="M44.0527 44.4613C44.0527 44.1226 44.1073 43.7965 44.2165 43.4809C44.3247 43.1653 44.4773 42.8675 44.6684 42.5928C44.8585 42.3191 45.0758 42.0611 45.3255 41.8221C45.5762 41.583 45.8482 41.367 46.1414 41.1804C45.7006 40.8763 45.3751 40.4915 45.1678 40.0186C44.9555 39.5457 44.8524 39.0088 44.8524 38.4017C44.8524 38.1092 44.8959 37.8114 44.9828 37.502C45.0697 37.1927 45.189 36.9002 45.3478 36.6213C45.4994 36.3403 45.6905 36.0781 45.9129 35.839C46.1312 35.6052 46.3809 35.3955 46.664 35.2204C45.9786 34.7769 45.4357 34.1519 45.0323 33.3529C44.63 32.5466 44.4288 31.5662 44.4288 30.4107C44.4288 29.4586 44.6088 28.6061 44.9676 27.8355C45.3255 27.0711 45.832 26.4178 46.474 25.881C47.1159 25.3378 47.8883 24.9226 48.785 24.6311C49.6817 24.3396 50.6714 24.1938 51.7531 24.1938C52.1888 24.1938 52.6286 24.2347 53.0694 24.3102C53.5091 24.3857 54.0419 24.4969 54.6626 24.6489L60.5787 24.6311V28.6418L58.8166 28.4489C58.9036 28.6827 58.9743 28.992 59.0279 29.3716C59.0825 29.7501 59.1098 30.1475 59.1098 30.5565C59.1098 31.5138 58.9359 32.36 58.5881 33.1013C58.2394 33.8363 57.7501 34.456 57.1142 34.952C56.4773 35.4479 55.7221 35.8212 54.8416 36.0718C53.9661 36.3235 52.9875 36.4514 51.9108 36.4514C51.6328 36.4514 51.377 36.4399 51.1546 36.422C50.9322 36.399 50.726 36.3749 50.5299 36.3455C50.4429 36.4388 50.3722 36.5437 50.3176 36.6611C50.264 36.7775 50.2367 36.9002 50.2367 37.0292C50.2367 37.3206 50.3348 37.566 50.5299 37.7642C50.726 37.9624 51.0192 38.0609 51.4104 38.0609H53.7103C54.6566 38.0609 55.5371 38.1375 56.3529 38.2895C57.1688 38.4405 57.8815 38.7268 58.485 39.1472C59.0886 39.5677 59.5617 40.157 59.9034 40.9098C60.2461 41.6637 60.4149 42.6378 60.4149 43.8342C60.4149 44.7224 60.236 45.5214 59.8822 46.2333C59.5283 46.9453 59.0016 47.5534 58.3 48.0484C57.5984 48.5443 56.7179 48.925 55.6625 49.1871C54.607 49.4503 53.3737 49.5845 51.9543 49.5845C51.4114 49.5845 50.8402 49.5677 50.2418 49.5373C49.6433 49.5079 49.0509 49.4387 48.4574 49.3276C47.8701 49.2164 47.311 49.0539 46.7772 48.8379C46.2445 48.6219 45.7774 48.3241 45.3751 47.9446C44.9727 47.566 44.6522 47.0921 44.4126 46.5206C44.174 45.9544 44.0537 45.2655 44.0537 44.4592L44.0527 44.4613ZM49.1257 43.9181C49.1257 44.1048 49.153 44.2977 49.2015 44.4843C49.251 44.671 49.3653 44.8408 49.5503 44.9866C49.7343 45.1334 50.0123 45.255 50.3873 45.3483C50.7573 45.4417 51.2628 45.4878 51.9048 45.4878C52.5406 45.4878 53.0512 45.4417 53.4374 45.3536C53.8235 45.2655 54.1228 45.1491 54.3341 45.0023C54.5464 44.8566 54.6879 44.6867 54.7587 44.4885C54.8284 44.2967 54.8678 44.0859 54.8678 43.8646C54.8678 43.4201 54.7374 43.117 54.4766 42.9598C54.2158 42.8014 53.868 42.7207 53.4272 42.7207H49.9253C49.6867 42.8601 49.4957 43.0248 49.3501 43.2166C49.2025 43.4033 49.1267 43.6371 49.1267 43.9171L49.1257 43.9181ZM50.2023 30.3929C50.2023 31.584 50.7462 32.1796 51.8279 32.1796C52.942 32.1796 53.497 31.5903 53.497 30.4118C53.497 29.8162 53.3615 29.3611 53.0896 29.0455C52.8227 28.7299 52.4102 28.5726 51.8603 28.5726C50.7563 28.5726 50.2023 29.1797 50.2023 30.3939V30.3929Z" fill="white"/>
</svg>
