<svg width="51" height="41" viewBox="0 0 51 41" fill="none" xmlns="http://www.w3.org/2000/svg">
<path fill-rule="evenodd" clip-rule="evenodd" d="M28.05 0.639893C28.6746 0.639973 29.2774 0.864782 29.7441 1.27168C30.2109 1.67858 30.5091 2.23926 30.5821 2.84739L30.6 3.13989C30.6007 3.77709 30.8496 4.38997 31.2958 4.85331C31.7419 5.31665 32.3517 5.59548 33.0006 5.63282C33.6494 5.67016 34.2883 5.46321 34.7867 5.05423C35.2851 4.64526 35.6054 4.06513 35.6821 3.43239L35.7 3.13989C35.7 2.47685 35.9687 1.84097 36.4469 1.37213C36.9251 0.903285 37.5737 0.639893 38.25 0.639893H43.35C45.3789 0.639893 47.3247 1.43007 48.7594 2.83659C50.194 4.24311 51 6.15077 51 8.13989V33.1399C51 35.129 50.194 37.0367 48.7594 38.4432C47.3247 39.8497 45.3789 40.6399 43.35 40.6399H38.25C37.6254 40.6398 37.0226 40.415 36.5559 40.0081C36.0891 39.6012 35.7909 39.0405 35.7178 38.4324L35.7 38.1399C35.6993 37.5027 35.4504 36.8898 35.0042 36.4265C34.5581 35.9631 33.9483 35.6843 33.2994 35.647C32.6506 35.6096 32.0117 35.8166 31.5133 36.2256C31.0149 36.6345 30.6946 37.2146 30.6178 37.8474L30.6 38.1399C30.6 38.8029 30.3313 39.4388 29.8531 39.9077C29.3749 40.3765 28.7263 40.6399 28.05 40.6399H7.65C5.62109 40.6399 3.67529 39.8497 2.24063 38.4432C0.80598 37.0367 0 35.129 0 33.1399V8.13989C0 6.15077 0.80598 4.24311 2.24063 2.83659C3.67529 1.43007 5.62109 0.639893 7.65 0.639893H28.05ZM33.15 23.1399C32.4737 23.1399 31.8251 23.4033 31.3469 23.8721C30.8687 24.341 30.6 24.9769 30.6 25.6399V28.1399C30.6 28.8029 30.8687 29.4388 31.3469 29.9077C31.8251 30.3765 32.4737 30.6399 33.15 30.6399C33.8263 30.6399 34.4749 30.3765 34.9531 29.9077C35.4313 29.4388 35.7 28.8029 35.7 28.1399V25.6399C35.7 24.9769 35.4313 24.341 34.9531 23.8721C34.4749 23.4033 33.8263 23.1399 33.15 23.1399ZM33.15 10.6399C32.5254 10.64 31.9226 10.8648 31.4559 11.2717C30.9891 11.6786 30.6909 12.2393 30.6178 12.8474L30.6 13.1399V15.6399C30.6007 16.2771 30.8496 16.89 31.2958 17.3533C31.7419 17.8167 32.3517 18.0955 33.0006 18.1328C33.6494 18.1702 34.2883 17.9632 34.7867 17.5542C35.2851 17.1453 35.6054 16.5651 35.6821 15.9324L35.7 15.6399V13.1399C35.7 12.4769 35.4313 11.841 34.9531 11.3721C34.4749 10.9033 33.8263 10.6399 33.15 10.6399Z" fill="#FBF3E8"/>
</svg>
