<svg width="51" height="41" viewBox="0 0 51 41" fill="none" xmlns="http://www.w3.org/2000/svg">
<path d="M25.6642 0.255859H25.9479C28.5682 0.266536 41.8449 0.373308 45.4247 1.44814C46.5069 1.77617 47.4931 2.41556 48.2846 3.30242C49.0761 4.18928 49.6453 5.29255 49.9353 6.50197C50.2573 7.8544 50.4836 9.6446 50.6366 11.4917L50.6685 11.8619L50.7386 12.7872L50.7641 13.1574C50.9713 16.4103 50.9968 19.4569 51 20.1224V20.3893C50.9968 21.0798 50.9681 24.3327 50.7386 27.7209L50.7131 28.0946L50.6844 28.4648C50.525 30.5005 50.2891 32.5221 49.9353 34.0098C49.6462 35.2197 49.0773 36.3234 48.2856 37.2105C47.494 38.0975 46.5074 38.7365 45.4247 39.0636C41.727 40.174 27.6724 40.2523 25.7247 40.2559H25.2721C24.2871 40.2559 20.2132 40.2345 15.9417 40.0708L15.3998 40.0494L15.1224 40.0352L14.5773 40.0103L14.0323 39.9854C10.4939 39.811 7.12451 39.5298 5.5721 39.06C4.48984 38.7333 3.50349 38.0948 2.71185 37.2084C1.92022 36.322 1.3511 35.219 1.0615 34.0098C0.707669 32.5256 0.471779 30.5005 0.312395 28.4648L0.286893 28.0911L0.261391 27.7209C0.104071 25.3093 0.0168944 22.8927 0 20.4747L0 20.037C0.0063754 19.2718 0.031877 16.6274 0.204013 13.709L0.226327 13.3424L0.23589 13.1574L0.261391 12.7872L0.331521 11.8619L0.363398 11.4917C0.516407 9.6446 0.742734 7.85084 1.06469 6.50197C1.3538 5.29206 1.9227 4.18828 2.71437 3.30126C3.50604 2.41425 4.49265 1.77518 5.57529 1.44814C7.1277 0.985462 10.4971 0.700739 14.0354 0.522787L14.5773 0.497874L15.1256 0.47652L15.3998 0.465843L15.9449 0.44093C18.9786 0.331933 22.0136 0.271423 25.0489 0.259419L25.6642 0.255859ZM20.4013 11.6804V28.8278L33.6525 20.2576L20.4013 11.6804Z" fill="#FBF3E8"/>
</svg>
